<svg id="visual" viewBox="0 0 2000 300" width="2000" height="300" xmlns="http://www.w3.org/2000/svg" xmlns:xlink="http://www.w3.org/1999/xlink" version="1.1"><rect x="0" y="0" width="2000" height="300" fill="#393E46"></rect><path d="M0 185L47.7 184.2C95.3 183.3 190.7 181.7 285.8 182.8C381 184 476 188 571.2 188.5C666.3 189 761.7 186 857 183.2C952.3 180.3 1047.7 177.7 1143 182.3C1238.3 187 1333.7 199 1428.8 207C1524 215 1619 219 1714.2 213.5C1809.3 208 1904.7 193 1952.3 185.5L2000 178L2000 301L1952.3 301C1904.7 301 1809.3 301 1714.2 301C1619 301 1524 301 1428.8 301C1333.7 301 1238.3 301 1143 301C1047.7 301 952.3 301 857 301C761.7 301 666.3 301 571.2 301C476 301 381 301 285.8 301C190.7 301 95.3 301 47.7 301L0 301Z" fill="#d65a31"></path><path d="M0 204L47.7 206.5C95.3 209 190.7 214 285.8 218.2C381 222.3 476 225.7 571.2 224.8C666.3 224 761.7 219 857 218.5C952.3 218 1047.7 222 1143 223.5C1238.3 225 1333.7 224 1428.8 221.8C1524 219.7 1619 216.3 1714.2 215C1809.3 213.7 1904.7 214.3 1952.3 214.7L2000 215L2000 301L1952.3 301C1904.7 301 1809.3 301 1714.2 301C1619 301 1524 301 1428.8 301C1333.7 301 1238.3 301 1143 301C1047.7 301 952.3 301 857 301C761.7 301 666.3 301 571.2 301C476 301 381 301 285.8 301C190.7 301 95.3 301 47.7 301L0 301Z" fill="#dd6634"></path><path d="M0 236L47.7 236.2C95.3 236.3 190.7 236.7 285.8 237.2C381 237.7 476 238.3 571.2 239.5C666.3 240.7 761.7 242.3 857 239C952.3 235.7 1047.7 227.3 1143 226C1238.3 224.7 1333.7 230.3 1428.8 233.7C1524 237 1619 238 1714.2 237.3C1809.3 236.7 1904.7 234.3 1952.3 233.2L2000 232L2000 301L1952.3 301C1904.7 301 1809.3 301 1714.2 301C1619 301 1524 301 1428.8 301C1333.7 301 1238.3 301 1143 301C1047.7 301 952.3 301 857 301C761.7 301 666.3 301 571.2 301C476 301 381 301 285.8 301C190.7 301 95.3 301 47.7 301L0 301Z" fill="#e37237"></path><path d="M0 258L47.7 257C95.3 256 190.7 254 285.8 253.5C381 253 476 254 571.2 254.8C666.3 255.7 761.7 256.3 857 256.7C952.3 257 1047.7 257 1143 257.7C1238.3 258.3 1333.7 259.7 1428.8 260.8C1524 262 1619 263 1714.2 262.5C1809.3 262 1904.7 260 1952.3 259L2000 258L2000 301L1952.3 301C1904.7 301 1809.3 301 1714.2 301C1619 301 1524 301 1428.8 301C1333.7 301 1238.3 301 1143 301C1047.7 301 952.3 301 857 301C761.7 301 666.3 301 571.2 301C476 301 381 301 285.8 301C190.7 301 95.3 301 47.7 301L0 301Z" fill="#e97e3b"></path><path d="M0 285L47.7 284C95.3 283 190.7 281 285.8 279.7C381 278.3 476 277.7 571.2 278.8C666.3 280 761.7 283 857 283.8C952.3 284.7 1047.7 283.3 1143 280.2C1238.3 277 1333.7 272 1428.8 271.5C1524 271 1619 275 1714.2 277.2C1809.3 279.3 1904.7 279.7 1952.3 279.8L2000 280L2000 301L1952.3 301C1904.7 301 1809.3 301 1714.2 301C1619 301 1524 301 1428.8 301C1333.7 301 1238.3 301 1143 301C1047.7 301 952.3 301 857 301C761.7 301 666.3 301 571.2 301C476 301 381 301 285.8 301C190.7 301 95.3 301 47.7 301L0 301Z" fill="#ef8a3f"></path></svg>