<svg id="visual" viewBox="0 0 900 600" width="900" height="600" xmlns="http://www.w3.org/2000/svg" xmlns:xlink="http://www.w3.org/1999/xlink" version="1.1"><rect x="0" y="0" width="900" height="600" fill="#D65A31"></rect><defs><linearGradient id="grad1_0" x1="33.3%" y1="0%" x2="100%" y2="100%"><stop offset="20%" stop-color="#d65a31" stop-opacity="1"></stop><stop offset="80%" stop-color="#d65a31" stop-opacity="1"></stop></linearGradient></defs><defs><linearGradient id="grad2_0" x1="0%" y1="0%" x2="66.7%" y2="100%"><stop offset="20%" stop-color="#d65a31" stop-opacity="1"></stop><stop offset="80%" stop-color="#d65a31" stop-opacity="1"></stop></linearGradient></defs><g transform="translate(900, 0)"><path d="M0 378.6C-45 360.9 -90.1 343.2 -135.1 326.1C-180.1 309.1 -225.1 292.6 -263 263C-300.9 233.5 -331.7 190.9 -349.8 144.9C-367.8 98.9 -373.2 49.4 -378.6 0L0 0Z" fill="#d14e22"></path></g><g transform="translate(0, 600)"><path d="M0 -378.6C46.2 -365.9 92.4 -353.2 139.7 -337.2C187 -321.2 235.5 -301.9 267.7 -267.7C299.9 -233.5 315.9 -184.5 331.7 -137.4C347.4 -90.3 363 -45.1 378.6 0L0 0Z" fill="#d14e22"></path></g></svg>