<svg id="visual" viewBox="0 0 900 600" style="width:100%; height:100%" xmlns="http://www.w3.org/2000/svg" xmlns:xlink="http://www.w3.org/1999/xlink" version="1.1"><path d="M0 241L82 241L82 133L164 133L164 259L245 259L245 193L327 193L327 115L409 115L409 211L491 211L491 175L573 175L573 109L655 109L655 79L736 79L736 169L818 169L818 193L900 193L900 109L900 0L900 0L818 0L818 0L736 0L736 0L655 0L655 0L573 0L573 0L491 0L491 0L409 0L409 0L327 0L327 0L245 0L245 0L164 0L164 0L82 0L82 0L0 0Z" fill="#d65a31"></path><path d="M0 403L82 403L82 433L164 433L164 367L245 367L245 349L327 349L327 313L409 313L409 325L491 325L491 337L573 337L573 397L655 397L655 319L736 319L736 277L818 277L818 373L900 373L900 295L900 107L900 191L818 191L818 167L736 167L736 77L655 77L655 107L573 107L573 173L491 173L491 209L409 209L409 113L327 113L327 191L245 191L245 257L164 257L164 131L82 131L82 239L0 239Z" fill="#b53e5b"></path><path d="M0 445L82 445L82 493L164 493L164 463L245 463L245 397L327 397L327 403L409 403L409 391L491 391L491 439L573 439L573 445L655 445L655 415L736 415L736 349L818 349L818 469L900 469L900 373L900 293L900 371L818 371L818 275L736 275L736 317L655 317L655 395L573 395L573 335L491 335L491 323L409 323L409 311L327 311L327 347L245 347L245 365L164 365L164 431L82 431L82 401L0 401Z" fill="#7b3c69"></path><path d="M0 559L82 559L82 553L164 553L164 547L245 547L245 553L327 553L327 559L409 559L409 505L491 505L491 547L573 547L573 535L655 535L655 505L736 505L736 493L818 493L818 547L900 547L900 493L900 371L900 467L818 467L818 347L736 347L736 413L655 413L655 443L573 443L573 437L491 437L491 389L409 389L409 401L327 401L327 395L245 395L245 461L164 461L164 491L82 491L82 443L0 443Z" fill="#403758"></path><path d="M0 601L82 601L82 601L164 601L164 601L245 601L245 601L327 601L327 601L409 601L409 601L491 601L491 601L573 601L573 601L655 601L655 601L736 601L736 601L818 601L818 601L900 601L900 601L900 491L900 545L818 545L818 491L736 491L736 503L655 503L655 533L573 533L573 545L491 545L491 503L409 503L409 557L327 557L327 551L245 551L245 545L164 545L164 551L82 551L82 557L0 557Z" fill="#222831"></path></svg>